<svg width="42" height="42" viewBox="0 0 42 42" fill="none" xmlns="http://www.w3.org/2000/svg">
<g clip-path="url(#clip0_7_17)">
<path d="M21 8.70345C25.0076 8.70345 25.478 8.72132 27.062 8.79277C28.5268 8.85828 29.3188 9.10242 29.8488 9.31084C30.5514 9.58476 31.0516 9.90631 31.5757 10.4303C32.0997 10.9543 32.4272 11.4545 32.6951 12.1572C32.8976 12.6872 33.1477 13.4792 33.2132 14.944C33.2847 16.528 33.3025 16.9984 33.3025 21.006C33.3025 25.0135 33.2847 25.4839 33.2132 27.0679C33.1477 28.5328 32.9036 29.3247 32.6951 29.8547C32.4212 30.5574 32.0997 31.0576 31.5757 31.5816C31.0516 32.1056 30.5514 32.4331 29.8488 32.7011C29.3188 32.9035 28.5268 33.1536 27.062 33.2191C25.478 33.2906 25.0076 33.3085 21 33.3085C16.9925 33.3085 16.522 33.2906 14.9381 33.2191C13.4732 33.1536 12.6812 32.9095 12.1513 32.7011C11.4486 32.4272 10.9484 32.1056 10.4244 31.5816C9.90036 31.0576 9.57285 30.5574 9.30489 29.8547C9.10242 29.3247 8.85233 28.5328 8.78682 27.0679C8.71537 25.4839 8.6975 25.0135 8.6975 21.006C8.6975 16.9984 8.71537 16.528 8.78682 14.944C8.85233 13.4792 9.09647 12.6872 9.30489 12.1572C9.5788 11.4545 9.90036 10.9543 10.4244 10.4303C10.9484 9.90631 11.4486 9.5788 12.1513 9.31084C12.6812 9.10838 13.4732 8.85828 14.9381 8.79277C16.522 8.71536 16.9984 8.70345 21 8.70345ZM21 6C16.927 6 16.4149 6.01786 14.813 6.08932C13.2172 6.16078 12.1274 6.41683 11.1747 6.78603C10.1862 7.16713 9.35252 7.68519 8.51886 8.51886C7.68519 9.35252 7.17309 10.1921 6.78603 11.1747C6.41683 12.1274 6.16078 13.2172 6.08932 14.819C6.01786 16.4148 6 16.927 6 21C6 25.073 6.01786 25.5852 6.08932 27.187C6.16078 28.7828 6.41683 29.8726 6.78603 30.8313C7.16713 31.8198 7.68519 32.6534 8.51886 33.4871C9.35252 34.3208 10.1921 34.8329 11.1747 35.2199C12.1274 35.5891 13.2172 35.8452 14.819 35.9166C16.4208 35.9881 16.927 36.006 21.006 36.006C25.085 36.006 25.5911 35.9881 27.193 35.9166C28.7888 35.8452 29.8785 35.5891 30.8373 35.2199C31.8258 34.8388 32.6594 34.3208 33.4931 33.4871C34.3267 32.6534 34.8389 31.8138 35.2259 30.8313C35.5951 29.8785 35.8512 28.7888 35.9226 27.187C35.9941 25.5852 36.0119 25.079 36.0119 21C36.0119 16.921 35.9941 16.4148 35.9226 14.813C35.8512 13.2171 35.5951 12.1274 35.2259 11.1687C34.8448 10.1802 34.3267 9.34657 33.4931 8.5129C32.6594 7.67924 31.8198 7.16713 30.8373 6.78007C29.8845 6.41088 28.7948 6.15482 27.193 6.08337C25.5852 6.01786 25.0731 6 21 6Z" fill="white"/>
<path d="M21 13.3004C16.7483 13.3004 13.2946 16.7482 13.2946 21.0058C13.2946 25.2635 16.7424 28.7113 21 28.7113C25.2576 28.7113 28.7054 25.2635 28.7054 21.0058C28.7054 16.7482 25.2576 13.3004 21 13.3004ZM21 26.0019C18.237 26.0019 15.998 23.7629 15.998 20.9999C15.998 18.2369 18.237 15.9979 21 15.9979C23.763 15.9979 26.002 18.2369 26.002 20.9999C26.002 23.7629 23.763 26.0019 21 26.0019Z" fill="white"/>
<path d="M29.0089 14.7892C30.0021 14.7892 30.8072 13.9841 30.8072 12.9909C30.8072 11.9977 30.0021 11.1926 29.0089 11.1926C28.0157 11.1926 27.2106 11.9977 27.2106 12.9909C27.2106 13.9841 28.0157 14.7892 29.0089 14.7892Z" fill="white"/>
</g>
<defs>
<clipPath id="clip0_7_17">
<rect width="30" height="30" fill="white" transform="translate(6 6)"/>
</clipPath>
</defs>
</svg>
