<svg xmlns="http://www.w3.org/2000/svg" width="102" height="27" viewBox="0 0 102 27">
  <g id="그룹_106" data-name="그룹 106" transform="translate(-907.982 -319.894)">
    <g id="사각형_5" data-name="사각형 5" transform="translate(907.982 319.894)" fill="none" stroke="#fff" stroke-width="1">
      <rect width="102" height="27" rx="13.5" stroke="none"/>
      <rect x="0.5" y="0.5" width="101" height="26" rx="13" fill="none"/>
    </g>
    <path id="패스_89" data-name="패스 89" d="M8.713-6.231V-10.3h1.2V1.1h-1.2V-5.234H5.553v-1ZM2.2-2.7q1.531-.009,2.586-.083a18.494,18.494,0,0,0,2.128-.276l.135.988a19.955,19.955,0,0,1-2.314.3q-1.142.079-2.857.079H.979V-9.238H6.19v1h-4Zm21.578-7.6v2.379h1.647v1H23.773v2.375H22.566V-10.3ZM20.981-7.362A2.306,2.306,0,0,1,20.6-6.049a2.585,2.585,0,0,1-1.066.9A3.528,3.528,0,0,1,18-4.826a3.557,3.557,0,0,1-1.537-.323,2.573,2.573,0,0,1-1.071-.9,2.283,2.283,0,0,1-.382-1.311,2.288,2.288,0,0,1,.382-1.318,2.582,2.582,0,0,1,1.068-.9A3.6,3.6,0,0,1,18-9.907a3.573,3.573,0,0,1,1.533.328,2.585,2.585,0,0,1,1.066.9A2.314,2.314,0,0,1,20.981-7.362Zm-4.8,0a1.428,1.428,0,0,0,.229.815,1.566,1.566,0,0,0,.649.557,2.132,2.132,0,0,0,.936.2,2.107,2.107,0,0,0,.929-.2,1.585,1.585,0,0,0,.649-.557,1.445,1.445,0,0,0,.236-.815,1.426,1.426,0,0,0-.236-.808,1.544,1.544,0,0,0-.649-.548A2.169,2.169,0,0,0,18-8.911a2.195,2.195,0,0,0-.936.193,1.526,1.526,0,0,0-.649.548A1.41,1.41,0,0,0,16.183-7.362Zm7.591,6.213H17.628V-.031H24.16V.934H16.443V-2.042h6.132V-3.079H16.416v-.952h7.357ZM34.938-5.84H36.76v1.019H34.938v5.9H33.73V-10.3h1.208Zm-5.818-3.6a2.468,2.468,0,0,1,1.511.492,3.209,3.209,0,0,1,1.035,1.4,5.548,5.548,0,0,1,.377,2.1,5.578,5.578,0,0,1-.377,2.11,3.207,3.207,0,0,1-1.035,1.4,2.468,2.468,0,0,1-1.511.492,2.468,2.468,0,0,1-1.511-.492,3.177,3.177,0,0,1-1.03-1.4,5.526,5.526,0,0,1-.364-2.11,5.467,5.467,0,0,1,.366-2.1,3.2,3.2,0,0,1,1.03-1.4A2.459,2.459,0,0,1,29.12-9.445Zm0,6.908a1.351,1.351,0,0,0,.925-.355A2.29,2.29,0,0,0,30.664-3.9a4.9,4.9,0,0,0,.22-1.551A4.869,4.869,0,0,0,30.664-7a2.29,2.29,0,0,0-.619-1.012,1.37,1.37,0,0,0-.925-.359,1.345,1.345,0,0,0-.914.361,2.335,2.335,0,0,0-.619,1.015,4.808,4.808,0,0,0-.222,1.537,4.861,4.861,0,0,0,.222,1.549,2.317,2.317,0,0,0,.619,1.015A1.332,1.332,0,0,0,29.12-2.536Zm13.97-1.127v2.334h4.637v1H37.317v-1H41.9V-3.663H38.5V-9.521h1.208v1.962h5.584V-9.521h1.2v5.858Zm2.2-2.927H39.709v1.948h5.584ZM56.8,1.077V-10.3h1.212V1.077ZM54.631-9.072a8.829,8.829,0,0,1-1.268,4.691A9.268,9.268,0,0,1,49.3-1l-.637-.974a9.021,9.021,0,0,0,3.4-2.592A6.727,6.727,0,0,0,53.4-8.112H49.217v-.961ZM73.287-4.6,69.094-.4l-.817-.8,2.81-2.81H64.048V-5.18h7.039l-2.81-2.806.817-.8Z" transform="translate(921.982 337.894)" fill="#fff"/>
  </g>
</svg>
