<svg width="169" height="60" viewBox="0 0 169 60" fill="none" xmlns="http://www.w3.org/2000/svg">
<path d="M21.5511 20.082C19.8696 20.1671 18.2275 21.4298 17.2199 22.7056C16.0226 24.2365 15.4207 26.2254 15.6563 28.162C16.0946 31.8324 19.163 34.5606 22.7876 34.7373C22.7941 34.7373 22.7941 34.7373 22.8072 34.7373C22.9315 34.7307 23.0231 34.626 23.0231 34.5083C23.0231 34.4363 22.9773 34.4232 22.9185 34.397C22.8792 34.3774 22.8661 34.3774 22.7876 34.3512C21.0604 33.7362 19.8108 32.0875 19.7322 30.164C19.6864 29.0256 20.0855 27.8938 20.8248 27.0302C21.1847 26.6115 21.6165 26.2582 22.1006 25.9965C22.6371 25.702 23.2194 25.5189 23.6774 25.1001C24.1354 24.6814 24.4429 24.0991 24.5541 23.4841C24.5868 23.2813 24.6064 23.0785 24.5999 22.8691C24.5606 21.8289 23.9456 20.8737 23.0297 20.3961C22.5521 20.1474 22.0483 20.0559 21.5511 20.082Z" fill="white"/>
<path d="M31.6723 30.2883C31.2928 30.308 30.9657 30.5435 30.8087 30.8837C29.3366 34.0634 26.0196 36.1766 22.3165 35.9345C17.4947 35.627 13.8374 31.466 14.1449 26.6442C14.3412 23.615 16.1469 20.8213 18.8621 19.4408C19.7322 19.0025 20.4846 18.5707 21.2043 17.9099C21.8585 17.308 22.4277 16.621 22.8726 15.849C23.4942 14.7695 23.8475 13.533 23.8671 12.2833C23.8736 11.8777 23.854 11.4655 23.769 11.0664L23.7559 11.0206C15.1656 10.5561 7.58278 17.2949 7.03321 25.8787C6.47056 34.6456 13.1243 42.2023 21.8847 42.7649C29.4937 43.2491 36.1866 38.3029 38.1887 31.2566C38.3784 30.5827 37.8485 29.9154 37.1484 29.9612L31.6723 30.2883Z" fill="white"/>
<path d="M33.5238 14.2657C36.6446 14.6779 38.8495 17.5108 38.4438 20.6054C38.0382 23.6935 35.1791 25.8721 32.0583 25.46C28.9375 25.0478 26.7327 22.2149 27.1384 19.1203C27.544 16.0322 30.3965 13.8601 33.5238 14.2657Z" fill="white"/>
<path d="M24.7634 26.317C24.1353 26.317 23.4876 26.546 22.9839 26.8666C21.7997 27.6255 20.9753 29.0453 21.0342 30.4584C21.1062 32.1202 22.2249 33.5531 23.782 34.0961C23.8475 34.1223 23.9194 34.1419 23.9849 34.1092C24.1157 34.0437 24.0961 33.8998 24.0634 33.782C23.8867 33.1605 23.8671 32.539 24.1353 31.9371C24.4232 31.3024 24.9335 30.9557 25.5093 30.6089C26.0523 30.2753 26.6149 29.922 26.8505 29.2939C27.2496 28.2274 26.7262 26.9975 25.7055 26.5068C25.4111 26.3759 25.0905 26.317 24.7634 26.317Z" fill="white"/>
<path d="M93.2993 23.2421C88.183 23.2421 84.022 27.4031 84.022 32.5193C84.022 37.6356 88.183 41.7966 93.2993 41.7966C94.7452 41.7966 96.1583 41.463 97.4341 40.8218L97.4145 45.6305C97.4145 47.9008 95.563 49.7523 93.2927 49.7523C91.0225 49.7523 89.1709 47.9008 89.1709 45.6305V44.9436H84.0154V45.6305C84.0154 50.7468 88.1765 54.9078 93.2927 54.9078C98.409 54.9078 102.57 50.7468 102.57 45.6305V32.5128C102.57 27.4031 98.4155 23.2421 93.2993 23.2421ZM93.2993 28.3975C95.5695 28.3975 97.421 30.2425 97.421 32.5128C97.421 34.783 95.5695 36.6346 93.2993 36.6346C91.029 36.6346 89.1775 34.7896 89.1775 32.5128C89.1775 30.2425 91.029 28.3975 93.2993 28.3975Z" fill="white"/>
<path d="M136.185 24.0533C131.102 24.0533 126.941 28.1947 126.915 33.2521L126.908 33.3241C126.908 38.4403 131.069 42.6013 136.185 42.6013C141.302 42.6013 145.463 38.4403 145.463 33.3241V33.2717C145.43 28.1882 141.269 24.0533 136.185 24.0533ZM132.07 33.2913C132.09 31.0407 133.935 29.2154 136.185 29.2154C138.436 29.2154 140.281 31.0473 140.307 33.3306C140.307 35.6008 138.462 37.4524 136.185 37.4524C133.915 37.4524 132.07 35.6074 132.064 33.3633L132.07 33.2913Z" fill="white"/>
<path d="M157.736 22.3261C154.498 22.3261 151.436 24.0729 149.781 26.8535C149.166 27.8872 148.734 29.0714 148.551 30.2622C148.289 31.9698 148.466 33.7755 148.466 35.5027C148.466 36.5953 148.466 37.6945 148.466 38.7871C148.466 38.8132 148.466 38.8394 148.466 38.859V42.4574H153.615V34.2531L153.621 31.6034C153.621 29.3331 155.473 27.4816 157.743 27.4816H158.43V22.3261C158.423 22.3261 157.736 22.3261 157.736 22.3261Z" fill="white"/>
<path d="M123.886 31.4725C123.755 30.4061 123.493 29.3593 122.976 28.3583C122.093 26.6507 120.68 25.2375 118.966 24.3543C117.664 23.6869 116.205 23.3336 114.739 23.3336C109.623 23.3336 105.462 27.4947 105.462 32.6109L105.488 33.2979C105.508 33.939 105.436 42.6144 105.462 42.6144H110.63C110.63 42.6144 110.63 35.3522 110.624 35.3522V32.5128C110.676 30.2556 112.482 28.4957 114.739 28.4957C117.009 28.4957 118.861 30.3407 118.861 32.6175L118.867 34.7176V34.8027V35.3588V42.621H124.016C124.016 42.621 124.016 35.4177 124.016 35.3588C124.016 34.0503 124.043 32.7483 123.886 31.4725Z" fill="white"/>
<path d="M74.7055 15.2798C76.1841 15.4761 77.2243 16.8173 77.0346 18.2763C76.8449 19.7418 75.4905 20.769 74.0119 20.5727C72.5333 20.3764 71.4931 19.0352 71.6828 17.5762C71.8791 16.1173 73.2268 15.0901 74.7055 15.2798Z" fill="white"/>
<path d="M81.019 37.3412C79.3703 37.3412 77.8393 36.3402 77.2439 34.8027C76.7009 33.396 76.8645 31.8258 76.8579 30.3538C76.8579 29.4051 76.8514 28.463 76.8514 27.5143C76.8514 27.0694 76.8448 26.6245 76.8448 26.1797C76.8448 25.7151 76.8972 25.231 76.7663 24.7796C76.6617 24.4263 76.485 24.0926 76.2429 23.8113C75.7522 23.2355 75.0195 22.9019 74.2671 22.9019C73.7306 22.9019 73.2268 23.0654 72.8147 23.3467L72.8081 23.3533C72.7492 23.3925 72.6838 23.4383 72.6249 23.4907C72.6184 23.4972 72.6118 23.5038 72.5988 23.5103C72.5464 23.5561 72.4941 23.6019 72.4483 23.6477C72.4352 23.6608 72.4286 23.6673 72.4156 23.6804C72.3698 23.7262 72.3305 23.772 72.2913 23.8178C72.2782 23.8309 72.2651 23.8505 72.252 23.8636C72.2127 23.9094 72.18 23.9552 72.1473 24.001C72.1342 24.0206 72.1146 24.0403 72.1015 24.0599C72.0688 24.1057 72.0426 24.1515 72.0165 24.1973C71.9903 24.2496 71.9641 24.2954 71.938 24.3478C71.9183 24.3936 71.8922 24.4328 71.8725 24.4786C71.8529 24.5179 71.8398 24.5637 71.8267 24.6029C71.8136 24.6356 71.8006 24.6749 71.7875 24.7076C71.7744 24.7468 71.7678 24.7861 71.7548 24.8254C71.7417 24.8646 71.7351 24.9039 71.722 24.9497C71.7155 24.9824 71.709 25.0216 71.7024 25.0543C71.6959 25.0871 71.6893 25.1263 71.6893 25.159C71.6763 25.2702 71.6632 25.3815 71.6632 25.4992C71.6632 25.5516 71.6632 25.6105 71.6697 25.6693L71.6566 25.8591C71.6566 26.9059 71.6566 27.9527 71.6566 29.006C71.6566 32.2249 71.3884 35.6009 73.3315 38.4142C75.0653 40.9199 77.9505 42.5425 81.0124 42.5425H81.7059V37.3412H81.019Z" fill="white"/>
<path d="M62.0457 24.1449C61.5157 23.9879 60.9662 23.8832 60.41 23.8243C60.397 23.8243 60.3839 23.8243 60.3708 23.8178C58.9249 23.6804 57.5379 23.7458 56.3341 22.8037C55.2873 21.9793 54.6592 20.7036 54.6592 19.3689C54.6592 18.1323 55.2022 16.9351 56.1247 16.1107C57.3612 15.0181 58.8725 15.0443 60.4166 15.0377C61.7185 15.0312 63.0205 15.0377 64.3159 15.0377C65.4347 15.0377 66.5535 15.0377 67.6657 15.0377V10H58.6109C53.6255 10.2094 49.6345 14.3311 49.6345 19.3689C49.6345 23.5692 52.559 27.318 56.6023 28.3975C57.3874 28.6069 58.1987 28.7247 59.0099 28.7639C60.2923 28.8294 61.4372 29.0649 62.3793 30.0005C63.2037 30.8183 63.7009 31.9632 63.7009 33.1278C63.7009 35.4962 61.8167 37.3412 59.4941 37.4131C56.5827 37.4982 53.6451 37.3935 50.7271 37.3935V42.4901C50.7271 42.5032 55.634 42.5163 56.0724 42.5228C58.3491 42.5425 60.8288 42.6799 62.9682 41.7835C64.715 41.0508 66.2198 39.7684 67.247 38.1786C67.6722 37.5178 68.0124 36.8047 68.2611 36.0588C68.5686 35.1167 68.7256 34.1222 68.7256 33.1278C68.7256 29.0518 65.9777 25.3029 62.0457 24.1449Z" fill="white"/>
</svg>
