<svg width="97" height="34" viewBox="0 0 97 34" fill="none" xmlns="http://www.w3.org/2000/svg">
<path d="M12.3696 11.5263C11.4045 11.5751 10.4619 12.2998 9.88364 13.0321C9.19645 13.9108 8.85097 15.0524 8.98616 16.1639C9.23776 18.2706 10.9989 19.8365 13.0793 19.9379C13.0831 19.9379 13.0831 19.9379 13.0906 19.9379C13.1619 19.9341 13.2145 19.874 13.2145 19.8064C13.2145 19.7651 13.1882 19.7576 13.1544 19.7426C13.1319 19.7313 13.1244 19.7313 13.0793 19.7163C12.0879 19.3633 11.3707 18.417 11.3256 17.313C11.2993 16.6596 11.5284 16.01 11.9527 15.5143C12.1593 15.2739 12.4071 15.0712 12.685 14.921C12.9929 14.752 13.3271 14.6468 13.59 14.4065C13.8529 14.1662 14.0294 13.832 14.0932 13.479C14.112 13.3626 14.1232 13.2461 14.1195 13.126C14.0969 12.5289 13.744 11.9807 13.2182 11.7065C12.9441 11.5638 12.655 11.5113 12.3696 11.5263Z" fill="#8C8C98"/>
<path d="M18.1788 17.3845C17.961 17.3957 17.7732 17.5309 17.6831 17.7262C16.8382 19.5512 14.9343 20.7641 12.8089 20.6252C10.0413 20.4487 7.9422 18.0604 8.11869 15.2928C8.23135 13.5542 9.26778 11.9507 10.8262 11.1584C11.3256 10.9068 11.7575 10.659 12.1705 10.2797C12.546 9.93422 12.8727 9.53993 13.1281 9.09682C13.4848 8.47721 13.6876 7.76749 13.6989 7.05025C13.7026 6.81743 13.6914 6.58085 13.6425 6.35179L13.635 6.3255C8.7045 6.05888 4.35226 9.92671 4.03682 14.8535C3.71388 19.8854 7.53289 24.2226 12.5611 24.5456C16.9283 24.8235 20.7699 21.9846 21.9189 17.9402C22.0278 17.5535 21.7237 17.1704 21.3219 17.1967L18.1788 17.3845Z" fill="#8C8C98"/>
<path d="M19.2415 8.18787C21.0327 8.42445 22.2982 10.0504 22.0654 11.8266C21.8326 13.5991 20.1916 14.8495 18.4004 14.613C16.6091 14.3764 15.3436 12.7504 15.5765 10.9742C15.8093 9.20177 17.4465 7.95505 19.2415 8.18787Z" fill="#8C8C98"/>
<path d="M14.2133 15.105C13.8529 15.105 13.4811 15.2364 13.1919 15.4204C12.5123 15.856 12.0391 16.6709 12.0729 17.482C12.1142 18.4358 12.7563 19.2582 13.6501 19.5699C13.6876 19.5849 13.7289 19.5962 13.7665 19.5774C13.8416 19.5398 13.8303 19.4572 13.8115 19.3896C13.7102 19.0329 13.6989 18.6761 13.8528 18.3307C14.0181 17.9664 14.311 17.7674 14.6414 17.5684C14.9531 17.3769 15.2761 17.1741 15.4112 16.8136C15.6403 16.2015 15.3399 15.4955 14.7541 15.2139C14.5851 15.1388 14.4011 15.105 14.2133 15.105Z" fill="#8C8C98"/>
<path d="M53.5505 13.3401C50.6139 13.3401 48.2256 15.7284 48.2256 18.6649C48.2256 21.6015 50.6139 23.9898 53.5505 23.9898C54.3804 23.9898 55.1915 23.7982 55.9237 23.4302L55.9125 26.1903C55.9125 27.4933 54.8498 28.556 53.5467 28.556C52.2437 28.556 51.181 27.4933 51.181 26.1903V25.796H48.2219V26.1903C48.2219 29.1268 50.6102 31.5151 53.5467 31.5151C56.4833 31.5151 58.8716 29.1268 58.8716 26.1903V18.6612C58.8716 15.7284 56.487 13.3401 53.5505 13.3401ZM53.5505 16.2992C54.8535 16.2992 55.9162 17.3581 55.9162 18.6612C55.9162 19.9642 54.8535 21.0269 53.5505 21.0269C52.2474 21.0269 51.1847 19.968 51.1847 18.6612C51.1847 17.3581 52.2474 16.2992 53.5505 16.2992Z" fill="#8C8C98"/>
<path d="M78.1656 13.8055C75.2479 13.8055 72.8596 16.1826 72.8445 19.0853L72.8408 19.1266C72.8408 22.0632 75.2291 24.4515 78.1656 24.4515C81.1022 24.4515 83.4904 22.0632 83.4904 19.1266V19.0966C83.4717 16.1788 81.0834 13.8055 78.1656 13.8055ZM75.8036 19.1078C75.8149 17.8161 76.8738 16.7684 78.1656 16.7684C79.4574 16.7684 80.5164 17.8198 80.5314 19.1304C80.5314 20.4334 79.4724 21.4961 78.1656 21.4961C76.8626 21.4961 75.8036 20.4372 75.7999 19.1491L75.8036 19.1078Z" fill="#8C8C98"/>
<path d="M90.5352 12.8143C88.6764 12.8143 86.9189 13.817 85.9689 15.4129C85.6159 16.0062 85.3681 16.6859 85.2629 17.3694C85.1127 18.3495 85.2141 19.3859 85.2141 20.3772C85.2141 21.0044 85.2141 21.6352 85.2141 22.2623C85.2141 22.2774 85.2141 22.2924 85.2141 22.3036V24.369H88.1694V19.66L88.1732 18.1392C88.1732 16.8361 89.2359 15.7734 90.5389 15.7734H90.9332V12.8143C90.9295 12.8143 90.5352 12.8143 90.5352 12.8143Z" fill="#8C8C98"/>
<path d="M71.1059 18.0639C71.0308 17.4518 70.8806 16.851 70.5839 16.2764C70.077 15.2963 69.2659 14.4852 68.282 13.9783C67.5347 13.5952 66.6973 13.3925 65.8562 13.3925C62.9196 13.3925 60.5313 15.7807 60.5313 18.7173L60.5464 19.1116C60.5576 19.4796 60.5163 24.4589 60.5313 24.4589H63.4979C63.4979 24.4589 63.4979 20.2907 63.4942 20.2907V18.661C63.5242 17.3654 64.5606 16.3553 65.8562 16.3553C67.1592 16.3553 68.2219 17.4142 68.2219 18.721L68.2257 19.9265V19.9753V20.2945V24.4627H71.181C71.181 24.4627 71.181 20.3283 71.181 20.2945C71.181 19.5434 71.196 18.7961 71.1059 18.0639Z" fill="#8C8C98"/>
<path d="M42.8783 8.76979C43.727 8.88245 44.324 9.65226 44.2151 10.4897C44.1062 11.3308 43.3289 11.9204 42.4802 11.8077C41.6316 11.6951 41.0345 10.9253 41.1434 10.0879C41.2561 9.25045 42.0296 8.66089 42.8783 8.76979Z" fill="#8C8C98"/>
<path d="M46.502 21.4322C45.5557 21.4322 44.677 20.8577 44.3353 19.9752C44.0236 19.1678 44.1175 18.2666 44.1137 17.4217C44.1137 16.8772 44.11 16.3364 44.11 15.7919C44.11 15.5366 44.1062 15.2812 44.1062 15.0259C44.1062 14.7593 44.1363 14.4814 44.0611 14.2223C44.0011 14.0195 43.8997 13.828 43.7607 13.6665C43.4791 13.336 43.0585 13.1445 42.6267 13.1445C42.3187 13.1445 42.0296 13.2384 41.793 13.3999L41.7893 13.4036C41.7555 13.4262 41.7179 13.4525 41.6841 13.4825C41.6804 13.4863 41.6766 13.49 41.6691 13.4938C41.6391 13.52 41.609 13.5463 41.5827 13.5726C41.5752 13.5801 41.5715 13.5839 41.564 13.5914C41.5377 13.6177 41.5151 13.644 41.4926 13.6703C41.4851 13.6778 41.4776 13.689 41.4701 13.6965C41.4476 13.7228 41.4288 13.7491 41.41 13.7754C41.4025 13.7867 41.3912 13.7979 41.3837 13.8092C41.3649 13.8355 41.3499 13.8618 41.3349 13.8881C41.3199 13.9181 41.3049 13.9444 41.2898 13.9744C41.2786 14.0007 41.2635 14.0232 41.2523 14.0495C41.241 14.0721 41.2335 14.0983 41.226 14.1209C41.2185 14.1397 41.211 14.1622 41.2035 14.181C41.196 14.2035 41.1922 14.226 41.1847 14.2486C41.1772 14.2711 41.1734 14.2936 41.1659 14.3199C41.1622 14.3387 41.1584 14.3612 41.1546 14.38C41.1509 14.3988 41.1471 14.4213 41.1471 14.4401C41.1396 14.5039 41.1321 14.5677 41.1321 14.6353C41.1321 14.6654 41.1321 14.6992 41.1359 14.733L41.1284 14.8419C41.1284 15.4427 41.1284 16.0435 41.1284 16.6481C41.1284 18.4956 40.9744 20.4333 42.0897 22.048C43.0848 23.4863 44.7408 24.4176 46.4983 24.4176H46.8963V21.4322H46.502Z" fill="#8C8C98"/>
<path d="M35.612 13.8582C35.3079 13.7681 34.9924 13.708 34.6732 13.6742C34.6657 13.6742 34.6582 13.6742 34.6507 13.6704C33.8208 13.5916 33.0247 13.6291 32.3338 13.0884C31.7329 12.6152 31.3724 11.883 31.3724 11.1169C31.3724 10.4072 31.6841 9.71998 32.2136 9.24683C32.9233 8.61972 33.7908 8.63474 34.677 8.63098C35.4243 8.62723 36.1715 8.63098 36.9151 8.63098C37.5572 8.63098 38.1993 8.63098 38.8377 8.63098V5.7395H33.6406C30.7791 5.85967 28.4885 8.22542 28.4885 11.1169C28.4885 13.5277 30.167 15.6794 32.4877 16.299C32.9383 16.4192 33.404 16.4868 33.8696 16.5093C34.6056 16.5469 35.2628 16.6821 35.8035 17.2191C36.2767 17.6885 36.5621 18.3456 36.5621 19.014C36.5621 20.3734 35.4806 21.4324 34.1475 21.4737C32.4765 21.5225 30.7904 21.4624 29.1156 21.4624V24.3877C29.1156 24.3952 31.932 24.4027 32.1836 24.4065C33.4903 24.4177 34.9136 24.4966 36.1415 23.9821C37.1441 23.5615 38.0078 22.8255 38.5974 21.913C38.8415 21.5337 39.0367 21.1244 39.1794 20.6963C39.3559 20.1556 39.4461 19.5848 39.4461 19.014C39.4461 16.6746 37.8689 14.5228 35.612 13.8582Z" fill="#8C8C98"/>
</svg>
