<svg id="그룹_554" data-name="그룹 554" xmlns="http://www.w3.org/2000/svg" xmlns:xlink="http://www.w3.org/1999/xlink" width="46.183" height="46.372" viewBox="0 0 46.183 46.372">
  <defs>
    <clipPath id="clip-path">
      <rect id="사각형_247" data-name="사각형 247" width="46.183" height="46.372" fill="none"/>
    </clipPath>
  </defs>
  <rect id="사각형_244" data-name="사각형 244" width="3.661" height="46.371" transform="translate(5.313 0)" fill="#0c2543"/>
  <rect id="사각형_245" data-name="사각형 245" width="3.661" height="46.371" transform="translate(21.223 0)" fill="#0c2543"/>
  <rect id="사각형_246" data-name="사각형 246" width="3.661" height="46.371" transform="translate(37.209 0)" fill="#0c2543"/>
  <g id="그룹_553" data-name="그룹 553">
    <g id="그룹_552" data-name="그룹 552" clip-path="url(#clip-path)">
      <path id="패스_195" data-name="패스 195" d="M16.125,95.261a5.313,5.313,0,1,1-5.313-5.313,5.312,5.312,0,0,1,5.313,5.313" transform="translate(-3.669 -60.011)" fill="#fff"/>
      <path id="패스_196" data-name="패스 196" d="M7.143,98.734a7.143,7.143,0,1,1,7.143-7.143,7.151,7.151,0,0,1-7.143,7.143m0-10.625a3.482,3.482,0,1,0,3.482,3.482,3.486,3.486,0,0,0-3.482-3.482" transform="translate(0 -56.341)" fill="#0c2543"/>
      <path id="패스_197" data-name="패스 197" d="M63.929,25.233a5.313,5.313,0,1,1-5.313-5.313,5.312,5.312,0,0,1,5.313,5.313" transform="translate(-35.563 -13.29)" fill="#fff"/>
      <path id="패스_198" data-name="패스 198" d="M54.947,28.706a7.143,7.143,0,1,1,7.143-7.143,7.151,7.151,0,0,1-7.143,7.143m0-10.625a3.482,3.482,0,1,0,3.482,3.482,3.486,3.486,0,0,0-3.482-3.482" transform="translate(-31.893 -9.621)" fill="#0c2543"/>
      <path id="패스_199" data-name="패스 199" d="M111.958,59.014a5.313,5.313,0,1,1-5.313-5.313,5.312,5.312,0,0,1,5.313,5.313" transform="translate(-67.606 -35.828)" fill="#fff"/>
      <path id="패스_200" data-name="패스 200" d="M102.976,62.487a7.143,7.143,0,1,1,7.143-7.143,7.151,7.151,0,0,1-7.143,7.143m0-10.625a3.482,3.482,0,1,0,3.482,3.482,3.486,3.486,0,0,0-3.482-3.482" transform="translate(-63.937 -32.158)" fill="#0c2543"/>
    </g>
  </g>
</svg>
