<svg id="그룹_563" data-name="그룹 563" xmlns="http://www.w3.org/2000/svg" xmlns:xlink="http://www.w3.org/1999/xlink" width="46.183" height="46.372" viewBox="0 0 46.183 46.372">
  <defs>
    <clipPath id="clip-path">
      <rect id="사각형_254" data-name="사각형 254" width="46.183" height="46.372" fill="none"/>
    </clipPath>
  </defs>
  <rect id="사각형_251" data-name="사각형 251" width="3.661" height="46.371" transform="translate(5.313 0)" fill="#fff"/>
  <rect id="사각형_252" data-name="사각형 252" width="3.661" height="46.371" transform="translate(21.223 0)" fill="#fff"/>
  <rect id="사각형_253" data-name="사각형 253" width="3.661" height="46.371" transform="translate(37.209 0)" fill="#fff"/>
  <g id="그룹_562" data-name="그룹 562">
    <g id="그룹_561" data-name="그룹 561" clip-path="url(#clip-path)">
      <path id="패스_209" data-name="패스 209" d="M16.125,95.261a5.313,5.313,0,1,1-5.313-5.313,5.312,5.312,0,0,1,5.313,5.313" transform="translate(-3.669 -60.011)" fill="#0c2543"/>
      <path id="패스_210" data-name="패스 210" d="M7.143,98.734a7.143,7.143,0,1,1,7.143-7.143,7.151,7.151,0,0,1-7.143,7.143m0-10.625a3.482,3.482,0,1,0,3.482,3.482,3.486,3.486,0,0,0-3.482-3.482" transform="translate(0 -56.341)" fill="#fff"/>
      <path id="패스_211" data-name="패스 211" d="M63.929,25.233a5.313,5.313,0,1,1-5.313-5.313,5.312,5.312,0,0,1,5.313,5.313" transform="translate(-35.563 -13.29)" fill="#0c2543"/>
      <path id="패스_212" data-name="패스 212" d="M54.947,28.706a7.143,7.143,0,1,1,7.143-7.143,7.151,7.151,0,0,1-7.143,7.143m0-10.625a3.482,3.482,0,1,0,3.482,3.482,3.486,3.486,0,0,0-3.482-3.482" transform="translate(-31.893 -9.621)" fill="#fff"/>
      <path id="패스_213" data-name="패스 213" d="M111.958,59.014a5.313,5.313,0,1,1-5.313-5.313,5.312,5.312,0,0,1,5.313,5.313" transform="translate(-67.606 -35.828)" fill="#0c2543"/>
      <path id="패스_214" data-name="패스 214" d="M102.976,62.487a7.143,7.143,0,1,1,7.143-7.143,7.151,7.151,0,0,1-7.143,7.143m0-10.625a3.482,3.482,0,1,0,3.482,3.482,3.486,3.486,0,0,0-3.482-3.482" transform="translate(-63.937 -32.158)" fill="#fff"/>
    </g>
  </g>
</svg>
