<svg id="그룹_566" data-name="그룹 566" xmlns="http://www.w3.org/2000/svg" xmlns:xlink="http://www.w3.org/1999/xlink" width="41.393" height="46.372" viewBox="0 0 41.393 46.372">
  <defs>
    <clipPath id="clip-path">
      <rect id="사각형_255" data-name="사각형 255" width="41.393" height="46.372" fill="none"/>
    </clipPath>
  </defs>
  <g id="그룹_565" data-name="그룹 565" clip-path="url(#clip-path)">
    <path id="패스_215" data-name="패스 215" d="M20.7,61.477A20.7,20.7,0,0,1,10.216,22.931,1.836,1.836,0,1,1,12.078,26.1a17.024,17.024,0,1,0,17.237,0,1.836,1.836,0,1,1,1.862-3.166A20.7,20.7,0,0,1,20.7,61.477" transform="translate(0 -15.105)" fill="#fff"/>
    <path id="패스_216" data-name="패스 216" d="M58.322,23.258a1.836,1.836,0,0,1-1.836-1.836V1.835a1.836,1.836,0,1,1,3.673,0V21.422a1.836,1.836,0,0,1-1.836,1.836" transform="translate(-37.626 0.001)" fill="#fff"/>
  </g>
</svg>
