<svg xmlns="http://www.w3.org/2000/svg" width="18.672" height="29.5" viewBox="0 0 18.672 29.5">
  <g id="패스_71" data-name="패스 71" transform="translate(27.56 -6.64) rotate(90)" fill="none">
    <path d="M18.191,10.19a4.581,4.581,0,0,1,6.4,0L35.632,23.62c1.437,1.747-.344,3.94-3.2,3.94H10.348c-2.856,0-4.636-2.193-3.2-3.94Z" stroke="none"/>
    <path d="M 21.39037132263184 10.88785171508789 C 20.68242073059082 10.88785171508789 20.01757049560547 11.11795043945312 19.7359619140625 11.46045112609863 L 8.693450927734375 24.89010238647461 C 8.677310943603516 24.90972900390625 8.665321350097656 24.9262580871582 8.656520843505859 24.93954086303711 C 8.770809173583984 25.12277221679688 9.299644470214844 25.55981063842773 10.34786224365234 25.55981063842773 L 32.43288040161133 25.55981063842773 C 33.48109436035156 25.55981063842773 34.00992965698242 25.12277603149414 34.12421798706055 24.93954467773438 C 34.11541748046875 24.92626190185547 34.10342788696289 24.90972900390625 34.0872917175293 24.89010238647461 L 23.04478073120117 11.46045112609863 C 22.7631721496582 11.11796188354492 22.09831047058105 10.88785171508789 21.39037132263184 10.88785171508789 M 21.39037132263184 8.887851715087891 C 22.6330394744873 8.887851715087891 23.87570571899414 9.321971893310547 24.5896110534668 10.19021034240723 L 35.63212203979492 23.61987113952637 C 37.06893157958984 25.36729049682617 35.28860092163086 27.55981063842773 32.43288040161133 27.55981063842773 L 10.34786224365234 27.55981063842773 C 7.492141723632812 27.55981063842773 5.711811065673828 25.36729049682617 7.148612976074219 23.61987113952637 L 18.19113159179688 10.19021034240723 C 18.90503692626953 9.321971893310547 20.14770317077637 8.887851715087891 21.39037132263184 8.887851715087891 Z" stroke="none" fill="#97b4dc"/>
  </g>
</svg>
