<svg id="그룹_568" data-name="그룹 568" xmlns="http://www.w3.org/2000/svg" xmlns:xlink="http://www.w3.org/1999/xlink" width="46.183" height="42.135" viewBox="0 0 46.183 42.135">
  <defs>
    <clipPath id="clip-path">
      <rect id="사각형_256" data-name="사각형 256" width="46.183" height="42.135" fill="none"/>
    </clipPath>
  </defs>
  <g id="그룹_567" data-name="그룹 567" clip-path="url(#clip-path)">
    <path id="패스_217" data-name="패스 217" d="M45.053,11.172,37.42,7.88c-.016-.007-.032-.012-.049-.018l-.058-.022a1.879,1.879,0,0,0-.194-.059l-.037-.01a1.8,1.8,0,0,0-.239-.037l-.042,0a1.819,1.819,0,0,0-.208,0l-.049,0a1.879,1.879,0,0,0-.236.032l-.017,0-.035.01a1.866,1.866,0,0,0-.189.055l-.056.019a1.833,1.833,0,0,0-.208.094l-.052.03a1.872,1.872,0,0,0-.161.1l-.043.031a1.874,1.874,0,0,0-.179.154l-.026.027a1.806,1.806,0,0,0-.136.156l-.033.042a1.84,1.84,0,0,0-.131.2l-.01.019c-.026.048-.05.1-.072.147-.008.017-.013.035-.02.053s-.016.04-.023.061a1.918,1.918,0,0,0-.064.216s0,.008,0,.013l0,.01,0,.014L33.154,17a1.871,1.871,0,1,0,3.656.8l.626-2.877A17.392,17.392,0,0,1,14.25,36.972,17.4,17.4,0,0,1,5.164,14.107,17.483,17.483,0,0,1,18.994,3.728,1.87,1.87,0,1,0,18.529.016a21.142,21.142,0,0,0-5.76,40.392A21.141,21.141,0,0,0,40.551,29.366a21.235,21.235,0,0,0,.324-15.922l2.7,1.163a1.871,1.871,0,0,0,1.482-3.435" transform="translate(0 0)" fill="#fff"/>
    <path id="패스_218" data-name="패스 218" d="M57.924,29.449v9.4a1.87,1.87,0,0,0,.548,1.323l5.165,5.165a1.87,1.87,0,0,0,2.645-2.645l-4.617-4.617V29.449a1.871,1.871,0,1,0-3.741,0" transform="translate(-38.722 -18.436)" fill="#fff"/>
  </g>
</svg>
