<svg id="그룹_558" data-name="그룹 558" xmlns="http://www.w3.org/2000/svg" xmlns:xlink="http://www.w3.org/1999/xlink" width="46.183" height="42.135" viewBox="0 0 46.183 42.135">
  <defs>
    <clipPath id="clip-path">
      <rect id="사각형_249" data-name="사각형 249" width="46.183" height="42.135" fill="none"/>
    </clipPath>
  </defs>
  <g id="그룹_557" data-name="그룹 557" clip-path="url(#clip-path)">
    <path id="패스_203" data-name="패스 203" d="M21.11,42.135A21.139,21.139,0,0,1,1.727,12.626,21.239,21.239,0,0,1,18.528.016a1.87,1.87,0,1,1,.465,3.712A17.483,17.483,0,0,0,5.163,14.107,17.4,17.4,0,0,0,37.115,27.885a17.477,17.477,0,0,0,.321-12.965L36.81,17.8a1.871,1.871,0,0,1-3.656-.8l1.7-7.8a1.871,1.871,0,0,1,3.337-.707A21.142,21.142,0,0,1,21.11,42.135" transform="translate(0 0)" fill="#0c2543"/>
    <path id="패스_204" data-name="패스 204" d="M114.5,30.341a1.863,1.863,0,0,1-.74-.153L106.127,26.9a1.871,1.871,0,1,1,1.481-3.435l7.633,3.291a1.871,1.871,0,0,1-.742,3.589" transform="translate(-70.189 -15.581)" fill="#0c2543"/>
    <path id="패스_205" data-name="패스 205" d="M64.959,45.888a1.866,1.866,0,0,1-1.323-.548l-5.165-5.165a1.873,1.873,0,0,1-.548-1.323v-9.4a1.871,1.871,0,1,1,3.741,0v8.629l4.617,4.617a1.871,1.871,0,0,1-1.323,3.193" transform="translate(-38.721 -18.436)" fill="#0c2543"/>
  </g>
</svg>
