<svg id="그룹_560" data-name="그룹 560" xmlns="http://www.w3.org/2000/svg" xmlns:xlink="http://www.w3.org/1999/xlink" width="46.182" height="46.182" viewBox="0 0 46.182 46.182">
  <defs>
    <clipPath id="clip-path">
      <rect id="사각형_250" data-name="사각형 250" width="46.182" height="46.182" fill="none"/>
    </clipPath>
  </defs>
  <g id="그룹_559" data-name="그룹 559" clip-path="url(#clip-path)">
    <path id="패스_206" data-name="패스 206" d="M37.586,46.3H8.539A8.549,8.549,0,0,1,0,37.758V8.711A8.549,8.549,0,0,1,8.539.172H34.655a1.825,1.825,0,0,1,0,3.651H8.539A4.894,4.894,0,0,0,3.651,8.711V37.758a4.894,4.894,0,0,0,4.889,4.888H37.586a4.894,4.894,0,0,0,4.888-4.888V12.5a1.825,1.825,0,1,1,3.651,0V37.758A8.548,8.548,0,0,1,37.586,46.3" transform="translate(0 -0.115)" fill="#fff"/>
    <path id="패스_207" data-name="패스 207" d="M44.991,57.332a12.17,12.17,0,1,1,12.17-12.17,12.184,12.184,0,0,1-12.17,12.17m0-20.69a8.519,8.519,0,1,0,8.519,8.519,8.529,8.529,0,0,0-8.519-8.519" transform="translate(-21.928 -22.043)" fill="#fff"/>
    <path id="패스_208" data-name="패스 208" d="M124.086,3.742A3.742,3.742,0,1,1,120.343,0a3.742,3.742,0,0,1,3.742,3.742" transform="translate(-77.903)" fill="#e61f19"/>
  </g>
</svg>
